<?xml version="1.0" encoding="UTF-8"?>
<svg version="1.1" xmlns="http://www.w3.org/2000/svg" width="500" height="500">
<path d="M0 0 C165 0 330 0 500 0 C500 165 500 330 500 500 C335 500 170 500 0 500 C0 335 0 170 0 0 Z " fill="#FEFEFE" transform="translate(0,0)"/>
<path d="M0 0 C12.41176114 9.66987422 23.0855125 20.71133809 31.40380859 34.0871582 C32.02771484 35.06168945 32.65162109 36.0362207 33.29443359 37.0402832 C50.2039516 64.53662988 55.02207392 98.98352353 47.60229492 130.25048828 C45.55252684 138.18955219 42.86029087 145.65128992 39.40380859 153.0871582 C38.71158203 154.63209961 38.71158203 154.63209961 38.00537109 156.20825195 C32.34228049 168.23840852 24.58088996 178.52055725 15.40380859 188.0871582 C14.63423828 188.91989258 13.86466797 189.75262695 13.07177734 190.6105957 C6.81922147 197.17628442 -0.00260512 202.2334322 -7.59619141 207.0871582 C-8.54107422 207.70461914 -9.48595703 208.32208008 -10.45947266 208.95825195 C-24.31613752 217.56356665 -39.63766834 222.24312502 -55.59619141 225.0871582 C-57.20880859 225.37526367 -57.20880859 225.37526367 -58.85400391 225.66918945 C-92.50001336 229.42714667 -124.69835349 220.66834257 -151.59619141 200.0871582 C-155.06326234 197.21559582 -158.34819844 194.2029039 -161.59619141 191.0871582 C-162.42892578 190.31758789 -163.26166016 189.54801758 -164.11962891 188.75512695 C-170.65183733 182.53445463 -175.81033629 175.69103614 -180.59619141 168.0871582 C-181.29873047 166.97211914 -182.00126953 165.85708008 -182.72509766 164.70825195 C-194.5696318 145.25295093 -199.77117687 123.48846839 -199.78369141 100.8371582 C-199.7959375 99.68602539 -199.80818359 98.53489258 -199.82080078 97.34887695 C-199.85099768 79.49244204 -194.896249 63.24990552 -187.59619141 47.0871582 C-187.26490234 46.30727539 -186.93361328 45.52739258 -186.59228516 44.72387695 C-175.46420816 20.29138319 -154.37856368 0.87153728 -130.59619141 -10.9128418 C-129.79697266 -11.32920898 -128.99775391 -11.74557617 -128.17431641 -12.17456055 C-122.17829133 -15.12602009 -115.97482918 -17.16151019 -109.59619141 -19.1003418 C-108.77771729 -19.35041992 -107.95924316 -19.60049805 -107.1159668 -19.8581543 C-71.07779507 -30.45656347 -30.14478811 -22.32471454 0 0 Z " fill="#6CE5E8" transform="translate(324.59619140625,148.912841796875)"/>
<path d="M0 0 C27.50791364 9.75168804 51.28323384 27.46908064 66.76318359 52.36083984 C67.38708984 53.33537109 68.01099609 54.30990234 68.65380859 55.31396484 C85.5633266 82.81031152 90.38144892 117.25720517 82.96166992 148.52416992 C80.91190184 156.46323384 78.21966587 163.92497156 74.76318359 171.36083984 C74.07095703 172.90578125 74.07095703 172.90578125 73.36474609 174.48193359 C67.70165549 186.51209016 59.94026496 196.79423889 50.76318359 206.36083984 C49.99361328 207.19357422 49.22404297 208.02630859 48.43115234 208.88427734 C42.17859647 215.44996606 35.35676988 220.50711384 27.76318359 225.36083984 C26.81830078 225.97830078 25.87341797 226.59576172 24.89990234 227.23193359 C11.04323748 235.83724829 -4.27829334 240.51680666 -20.23681641 243.36083984 C-21.84943359 243.64894531 -21.84943359 243.64894531 -23.49462891 243.94287109 C-57.14063836 247.70082831 -89.33897849 238.94202421 -116.23681641 218.36083984 C-119.70388734 215.48927746 -122.98882344 212.47658554 -126.23681641 209.36083984 C-127.06955078 208.59126953 -127.90228516 207.82169922 -128.76025391 207.02880859 C-135.29246233 200.80813627 -140.45096129 193.96471778 -145.23681641 186.36083984 C-145.93935547 185.24580078 -146.64189453 184.13076172 -147.36572266 182.98193359 C-152.51583653 174.52258732 -156.18488105 165.76676694 -159.23681641 156.36083984 C-159.85943359 154.49878906 -159.85943359 154.49878906 -160.49462891 152.59912109 C-162.8605474 144.55003475 -163.68652955 136.81101653 -163.86181641 128.42333984 C-163.89710449 127.46419678 -163.93239258 126.50505371 -163.96875 125.5168457 C-163.95492325 118.28734328 -161.92979879 113.82896343 -157.23681641 108.36083984 C-155.00634766 106.20458984 -155.00634766 106.20458984 -153.04931641 104.86083984 C-152.06898438 104.16474609 -152.06898438 104.16474609 -151.06884766 103.45458984 C-145.22903054 99.96813186 -137.78546152 100.77235136 -131.23681641 101.36083984 C-127.93472681 102.45641686 -125.75730235 103.99031416 -123.23681641 106.36083984 C-122.60130859 106.94220703 -121.96580078 107.52357422 -121.31103516 108.12255859 C-114.91955723 114.64636525 -113.65990835 121.5057761 -112.32495117 130.31567383 C-109.27254425 149.90617576 -99.75932724 167.16662502 -83.71337891 179.26318359 C-66.24335048 190.96963959 -46.38829145 196.08889051 -25.58520508 192.33056641 C-12.05413132 189.55007021 0.47741131 183.67391334 10.76318359 174.36083984 C11.77058594 173.49072266 11.77058594 173.49072266 12.79833984 172.60302734 C27.58705674 158.98259059 33.48598637 139.88968898 35.08349609 120.46630859 C35.66697627 101.89218971 28.23091301 83.13075434 15.76318359 69.36083984 C14.89306641 68.3534375 14.89306641 68.3534375 14.00537109 67.32568359 C5.17290709 57.7356233 -6.16777706 52.67121104 -18.23681641 48.36083984 C-27.52737685 44.81687226 -33.85144991 40.46890873 -38.23681641 31.36083984 C-40.41675355 24.16853022 -40.13898184 17.30147548 -36.79931641 10.54833984 C-28.79658119 -2.80228525 -13.84501489 -4.36401155 0 0 Z " fill="#41B8D5" transform="translate(289.23681640625,130.63916015625)"/>
<path d="M0 0 C1.89453125 1.63671875 1.89453125 1.63671875 3.8125 3.6875 C6.34781303 6.32648754 8.8828602 8.83601161 11.6875 11.1875 C14.62273399 13.64888456 17.2897348 16.2897348 20 19 C24.95192397 23.61469617 29.99927877 28.05493429 35.3125 32.25 C38.78052999 34.98877135 41.95340763 37.78872696 45 41 C50.16912747 46.37713323 50.16912747 46.37713323 56 51 C54.54422667 55.1246911 52.41781866 58.37327201 50 62 C49.70480469 62.76183594 49.40960938 63.52367187 49.10546875 64.30859375 C47.80798238 67.46749165 46.13422364 70.17422697 44.3125 73.0625 C43.59128697 74.21542041 42.87125965 75.36908329 42.15234375 76.5234375 C41.6106958 77.39307129 41.6106958 77.39307129 41.05810547 78.28027344 C39.45228847 80.8901892 37.91258897 83.53695688 36.375 86.1875 C35.79492188 87.16847656 35.21484375 88.14945312 34.6171875 89.16015625 C32.99403794 91.92788957 32.99403794 91.92788957 31.7578125 94.62109375 C27.44677513 103.20300354 19.9471991 107.22487429 12 112 C10.50302243 112.91783088 9.00694322 113.83712843 7.51171875 114.7578125 C4.47215914 116.62465936 1.42586121 118.47981459 -1.625 120.328125 C-5.63979924 122.76870033 -9.61228073 125.26892565 -13.5625 127.8125 C-14.4141272 128.35861938 -14.4141272 128.35861938 -15.28295898 128.91577148 C-17.79933188 130.53888969 -20.27778625 132.19648296 -22.72265625 133.92578125 C-23.51542969 134.48652344 -24.30820313 135.04726563 -25.125 135.625 C-25.78757813 136.11226562 -26.45015625 136.59953125 -27.1328125 137.1015625 C-29 138 -29 138 -30.9921875 137.93359375 C-33.79810498 136.62889671 -35.08754255 134.86791467 -37 132.4375 C-38.17175781 130.95443359 -38.17175781 130.95443359 -39.3671875 129.44140625 C-42.84417986 124.92025207 -46.28362405 120.36952352 -49.67089844 115.78076172 C-52.40621049 112.07791049 -55.23632025 108.54592336 -58.25 105.0625 C-60.91193916 101.58050134 -61.86101516 99.17857927 -61.51171875 94.79296875 C-60.66870137 90.19176702 -59.609616 85.64026581 -58.42456055 81.11523438 C-56.78750487 75.11537292 -56.78750487 75.11537292 -57 69 C-59.0132498 66.15451028 -61.40163095 63.75924766 -63.875 61.3125 C-65.16561015 59.99761104 -66.45473442 58.68126157 -67.7421875 57.36328125 C-68.3182373 56.78876221 -68.89428711 56.21424316 -69.48779297 55.62231445 C-73.83402899 50.95961856 -73.27939186 47.15650089 -73.203125 41.07421875 C-72.94532141 34.33662112 -71.96954982 27.66565504 -71 21 C-68.15510754 19.75535955 -65.46165071 18.87086693 -62.43359375 18.14453125 C-56.81563288 16.7942748 -51.4722032 14.69467734 -46.0625 12.6875 C-37.34176182 9.49564995 -28.62786559 6.57037664 -19.6875 4.06640625 C-15.19240123 2.76644654 -10.80613164 1.22314032 -6.41796875 -0.3984375 C-3.71779612 -1.07020904 -2.53936789 -1.10384767 0 0 Z " fill="#79C4FE" transform="translate(266,183)"/>
<path d="M0 0 C1.41720481 1.18319511 2.81305962 2.39238742 4.1875 3.625 C4.94675781 4.30304688 5.70601563 4.98109375 6.48828125 5.6796875 C19.49556044 17.96555457 28.05532944 35.31562215 29.46875 53.1796875 C30.06697674 76.75979153 22.65896895 96.5814959 6.5 113.8125 C-7.76178047 127.5719513 -26.73451721 134.53139927 -46.375 135 C-68.35107845 134.42889609 -87.30880355 125.09202584 -102.4609375 109.38671875 C-115.73867184 93.79310051 -121.63163671 74.29538476 -121.09765625 54.02734375 C-119.8328412 38.93619431 -114.48346297 25.92521218 -105.8125 13.625 C-105.38710937 13.01269531 -104.96171875 12.40039062 -104.5234375 11.76953125 C-93.7928323 -2.0880908 -75.64538787 -12.03327775 -58.58203125 -14.921875 C-37.37659775 -17.47092193 -17.30195134 -12.90922794 0 0 Z M-38.86328125 -6.765625 C-39.86472168 -6.42523193 -40.86616211 -6.08483887 -41.89794922 -5.73413086 C-43.49533936 -5.18511108 -43.49533936 -5.18511108 -45.125 -4.625 C-51.77787495 -2.36494889 -58.39980354 -0.13163471 -65.1875 1.6875 C-71.42889654 3.39108804 -77.36379192 5.694254 -83.33544922 8.16430664 C-87.82668824 9.98922266 -92.19326952 11.27697445 -96.95385742 12.20849609 C-98.89221738 12.56452167 -98.89221738 12.56452167 -100.8125 13.625 C-101.74389075 18.19571387 -102.18170196 22.80918177 -102.60888672 27.45166016 C-102.79644285 29.4536082 -103.02335244 31.45176582 -103.25390625 33.44921875 C-103.60149951 38.4644929 -103.77322952 42.0946344 -101.046875 46.4375 C-98.75118051 48.99868297 -96.3656966 51.32187953 -93.8125 53.625 C-87.06393388 60.01268023 -87.06393388 60.01268023 -86.5 63.62890625 C-86.71447456 66.05514967 -87.20977061 68.26342872 -87.8125 70.625 C-91.75951041 83.43068454 -91.75951041 83.43068454 -89.44140625 95.83203125 C-88.12223197 97.48579859 -86.75679457 99.10320422 -85.359375 100.69140625 C-82.31174029 104.20179531 -79.57298538 107.88782115 -76.8125 111.625 C-75.28494208 113.66733058 -73.75393605 115.70704128 -72.22265625 117.74658203 C-71.3332078 118.93138404 -70.44501301 120.11712919 -69.55859375 121.30419922 C-68.48733849 122.73178303 -67.40052791 124.14765774 -66.3125 125.5625 C-65.7246875 126.33464844 -65.136875 127.10679687 -64.53125 127.90234375 C-62.5494408 129.88865706 -61.61803746 130.52461354 -58.8125 130.625 C-56.49450658 129.59141033 -56.49450658 129.59141033 -54.125 127.875 C-53.1453125 127.22015625 -52.165625 126.5653125 -51.15625 125.890625 C-50.34994141 125.34245117 -50.34994141 125.34245117 -49.52734375 124.78320312 C-46.42226348 122.68603616 -43.2711194 120.65984629 -40.125 118.625 C-39.08001343 117.94570435 -39.08001343 117.94570435 -38.01391602 117.25268555 C-30.38548397 112.30995627 -22.66028765 107.52218858 -14.9230957 102.75195312 C-13.94300537 102.14416016 -12.96291504 101.53636719 -11.953125 100.91015625 C-11.08204102 100.37269775 -10.21095703 99.83523926 -9.31347656 99.28149414 C-4.61699041 96.17082853 -1.42269424 93.56585 1.125 88.5 C4.5341258 81.94198701 8.29462325 75.66240688 12.203125 69.390625 C16.57010856 62.4297537 16.57010856 62.4297537 20.4375 55.1875 C22.13421923 51.73346443 23.98816214 48.76691123 26.1875 45.625 C24.77431481 42.3203208 23.11470475 40.42991413 20.375 38.125 C19.30378906 37.21621094 19.30378906 37.21621094 18.2109375 36.2890625 C16.65446291 35.00902741 15.0807683 33.74990982 13.5 32.5 C10.87108597 30.36844808 8.57972574 28.02061896 6.1875 25.625 C4.08241338 23.60332697 1.95052227 21.61174711 -0.1875 19.625 C-0.72632813 19.11710937 -1.26515625 18.60921875 -1.8203125 18.0859375 C-5.14614785 14.99766182 -8.57888927 12.32588015 -12.30371094 9.73730469 C-14.08305009 8.42554592 -15.41036586 7.00479232 -16.75 5.25 C-19.52481225 1.8336989 -22.62216223 -0.9618549 -25.98046875 -3.796875 C-27.8125 -5.375 -27.8125 -5.375 -29.36328125 -7.078125 C-32.2818058 -9.68985048 -35.56649418 -7.89925497 -38.86328125 -6.765625 Z " fill="#FBFDFE" transform="translate(295.8125,190.375)"/>
<path d="M0 0 C1.89453125 1.63671875 1.89453125 1.63671875 3.8125 3.6875 C6.34781303 6.32648754 8.8828602 8.83601161 11.6875 11.1875 C14.62273399 13.64888456 17.2897348 16.2897348 20 19 C24.95192397 23.61469617 29.99927877 28.05493429 35.3125 32.25 C38.78052999 34.98877135 41.95340763 37.78872696 45 41 C50.16912747 46.37713323 50.16912747 46.37713323 56 51 C54.54422667 55.1246911 52.41781866 58.37327201 50 62 C49.70480469 62.76183594 49.40960938 63.52367187 49.10546875 64.30859375 C47.80798238 67.46749165 46.13422364 70.17422697 44.3125 73.0625 C43.59128697 74.21542041 42.87125965 75.36908329 42.15234375 76.5234375 C41.6106958 77.39307129 41.6106958 77.39307129 41.05810547 78.28027344 C39.45228847 80.8901892 37.91258897 83.53695688 36.375 86.1875 C35.79492188 87.16847656 35.21484375 88.14945312 34.6171875 89.16015625 C32.99403794 91.92788957 32.99403794 91.92788957 31.7578125 94.62109375 C27.44677513 103.20300354 19.9471991 107.22487429 12 112 C10.50302243 112.91783088 9.00694322 113.83712843 7.51171875 114.7578125 C4.47215914 116.62465936 1.42586121 118.47981459 -1.625 120.328125 C-5.63979924 122.76870033 -9.61228073 125.26892565 -13.5625 127.8125 C-14.4141272 128.35861938 -14.4141272 128.35861938 -15.28295898 128.91577148 C-17.79933188 130.53888969 -20.27778625 132.19648296 -22.72265625 133.92578125 C-23.51542969 134.48652344 -24.30820313 135.04726563 -25.125 135.625 C-25.78757813 136.11226562 -26.45015625 136.59953125 -27.1328125 137.1015625 C-29 138 -29 138 -30.9921875 137.93359375 C-33.79810498 136.62889671 -35.08754255 134.86791467 -37 132.4375 C-37.78117187 131.44878906 -38.56234375 130.46007812 -39.3671875 129.44140625 C-42.84417986 124.92025207 -46.28362405 120.36952352 -49.67089844 115.78076172 C-52.40621049 112.07791049 -55.23632025 108.54592336 -58.25 105.0625 C-60.90687469 101.58712602 -61.87014814 99.18400541 -61.50390625 94.8046875 C-58.29456625 76.94184938 -58.29456625 76.94184938 -55 72 C-50.64835504 72.42603517 -48.52780355 75.272207 -45.8125 78.375 C-45.33055176 78.91302246 -44.84860352 79.45104492 -44.35205078 80.00537109 C-40.50593636 84.33335939 -36.84525177 88.80506673 -33.20703125 93.30859375 C-30.87682066 96.1502134 -28.49309402 98.93127616 -26.0625 101.6875 C-25.33160156 102.51636719 -24.60070312 103.34523438 -23.84765625 104.19921875 C-22.19129712 106.23265476 -22.19129712 106.23265476 -20 106 C-19.34 105.34 -18.68 104.68 -18 104 C-18.74250597 108.08378283 -19.82923301 112.01939223 -21 116 C-16.58946098 113.73172279 -13.89399214 111.01943352 -11 107 C-10.92007813 106.19175781 -10.84015625 105.38351562 -10.7578125 104.55078125 C-9.81179516 101.3665064 -8.33795772 100.5807634 -5.4921875 99.02368164 C-4.87601562 98.7064917 -4.25984375 98.38930176 -3.625 98.0625 C-2.9959375 97.71243896 -2.366875 97.36237793 -1.71875 97.00170898 C1.20290336 95.39043786 4.05577097 93.97796702 7.1640625 92.75 C12.47436976 90.541112 12.47436976 90.541112 15.96777344 86.13085938 C17.16375604 83.13081303 18.15897036 80.1256211 18.98828125 77.00415039 C20.51771836 71.3656006 20.51771836 71.3656006 23.6640625 68.98046875 C24.43492187 68.65691406 25.20578125 68.33335937 26 68 C25.071875 67.1646875 25.071875 67.1646875 24.125 66.3125 C21.90078199 63.89202746 21.0745292 62.07008344 20 59 C18.55522058 55.38805145 17.40355931 54.69870229 14 53 C6.07237362 46.87179203 -1.17887872 39.44803712 -7.515625 31.703125 C-11.5636335 27.05856787 -16.16771867 22.92683077 -20.6875 18.75 C-21.26822266 18.20859375 -21.84894531 17.6671875 -22.44726562 17.109375 C-25.48578172 14.22715755 -25.48578172 14.22715755 -29 12 C-28.67 10.35 -28.34 8.7 -28 7 C-24.0891223 5.62869384 -20.17051762 4.28097257 -16.25 2.9375 C-15.13882813 2.54755859 -14.02765625 2.15761719 -12.8828125 1.75585938 C-11.81289062 1.39169922 -10.74296875 1.02753906 -9.640625 0.65234375 C-8.65610352 0.31195068 -7.67158203 -0.02844238 -6.65722656 -0.37915039 C-3.9077508 -1.02155363 -2.59252534 -1.03586316 0 0 Z " fill="#76B7FE" transform="translate(266,183)"/>
<path d="M0 0 C1.89453125 1.63671875 1.89453125 1.63671875 3.8125 3.6875 C6.34781303 6.32648754 8.8828602 8.83601161 11.6875 11.1875 C14.62273399 13.64888456 17.2897348 16.2897348 20 19 C24.95192397 23.61469617 29.99927877 28.05493429 35.3125 32.25 C38.78154131 34.99070449 41.94998641 37.78945938 45 41 C45.67289062 41.65226562 46.34578125 42.30453125 47.0390625 42.9765625 C47.76867187 43.68554688 48.49828125 44.39453125 49.25 45.125 C49.93578125 45.78757813 50.6215625 46.45015625 51.328125 47.1328125 C53 49 53 49 54 52 C48.44726775 55.45230234 43.0225046 58.43485915 37 61 C34.89675659 62.29009354 32.83904389 63.62712824 30.796875 65.01171875 C29 66 29 66 26 66 C24.2109375 64.35546875 24.2109375 64.35546875 22.375 62.1875 C21.76398438 61.47980469 21.15296875 60.77210938 20.5234375 60.04296875 C19 58 19 58 18 55 C16.69035128 54.28793087 15.35272017 53.62639474 14 53 C6.07237362 46.87179203 -1.17887872 39.44803712 -7.515625 31.703125 C-11.5636335 27.05856787 -16.16771867 22.92683077 -20.6875 18.75 C-21.26822266 18.20859375 -21.84894531 17.6671875 -22.44726562 17.109375 C-25.48578172 14.22715755 -25.48578172 14.22715755 -29 12 C-28.67 10.35 -28.34 8.7 -28 7 C-24.0891223 5.62869384 -20.17051762 4.28097257 -16.25 2.9375 C-15.13882813 2.54755859 -14.02765625 2.15761719 -12.8828125 1.75585938 C-11.81289062 1.39169922 -10.74296875 1.02753906 -9.640625 0.65234375 C-8.16384277 0.14175415 -8.16384277 0.14175415 -6.65722656 -0.37915039 C-3.9077508 -1.02155363 -2.59252534 -1.03586316 0 0 Z " fill="#526BE4" transform="translate(266,183)"/>
<path d="M0 0 C4.06303106 4.00936838 7.98393681 8.13646934 11.875 12.3125 C12.49922852 12.9818457 13.12345703 13.65119141 13.76660156 14.34082031 C17.34682272 18.19082266 20.87722338 22.07136791 24.3046875 26.05859375 C26.45155051 28.51709816 28.66537132 30.910289 30.875 33.3125 C34.14529473 36.89261212 37.28026617 40.52916237 40.3125 44.3125 C44.55976385 49.59866292 49.13728505 54.52125945 53.83520508 59.40551758 C58 63.78889127 58 63.78889127 58 66 C58.66 66 59.32 66 60 66 C59.54554036 67.41791408 59.08625056 68.83428046 58.625 70.25 C58.24214844 71.43335938 58.24214844 71.43335938 57.8515625 72.640625 C57 75 57 75 55.9375 77.09375 C54.67711045 79.65654209 54.38351515 82.18755555 54 85 C49.50718396 85 47.72372838 83.71005162 44.51953125 80.56640625 C43.61027952 79.57137289 42.70827975 78.56967861 41.8125 77.5625 C41.33127686 77.02971436 40.85005371 76.49692871 40.35424805 75.94799805 C36.47535864 71.61841742 32.79422555 67.13943043 29.1328125 62.625 C27.0030144 60.00371003 24.87026299 57.38993232 22.6875 54.8125 C21.76517578 53.70841797 21.76517578 53.70841797 20.82421875 52.58203125 C18.89879346 50.56321543 18.89879346 50.56321543 15 51 C14.70609375 49.98292969 14.70609375 49.98292969 14.40625 48.9453125 C12.46598482 44.88153488 9.61496891 42.08456666 6.5 38.875 C5.32110653 37.64496148 4.14395286 36.41325258 2.96875 35.1796875 C2.44732422 34.64069824 1.92589844 34.10170898 1.38867188 33.54638672 C-3.15749113 28.48390492 -2.37790246 23.53185984 -2.12695312 17.03613281 C-1.77050802 11.31930175 -0.88699141 5.65457025 0 0 Z " fill="#74BEFE" transform="translate(195,205)"/>
<path d="M0 0 C4.35164496 0.42603517 6.47219645 3.272207 9.1875 6.375 C9.66944824 6.91302246 10.15139648 7.45104492 10.64794922 8.00537109 C14.49406364 12.33335939 18.15474823 16.80506673 21.79296875 21.30859375 C24.12317934 24.1502134 26.50690598 26.93127616 28.9375 29.6875 C29.66839844 30.51636719 30.39929688 31.34523438 31.15234375 32.19921875 C32.80870288 34.23265476 32.80870288 34.23265476 35 34 C35.66 33.34 36.32 32.68 37 32 C36.5867306 34.47961639 36.21405717 36.60088145 35.01953125 38.828125 C33.44257274 42.18746957 33.17656726 45.69377702 32.66015625 49.34375 C31.93397096 52.26567897 30.86744816 53.67730329 29 56 C28.22664607 57.56222667 27.49631987 59.1465603 26.8125 60.75 C26.46832031 61.54921875 26.12414062 62.3484375 25.76953125 63.171875 C25.51558594 63.77515625 25.26164062 64.3784375 25 65 C21.13275125 64.46570905 19.82498778 62.9915958 17.5 59.9375 C16.46552734 58.59171875 16.46552734 58.59171875 15.41015625 57.21875 C14.60571903 56.14662172 13.80242432 55.07363565 13 54 C12.01966833 52.69781346 11.03919156 51.39573614 10.05859375 50.09375 C8.49168582 48.01160645 6.92945756 45.92662632 5.37988281 43.83154297 C2.62622033 40.11383401 -0.22197359 36.5634636 -3.25 33.0625 C-5.90687469 29.58712602 -6.87014814 27.18400541 -6.50390625 22.8046875 C-3.29456625 4.94184938 -3.29456625 4.94184938 0 0 Z " fill="#587FF0" transform="translate(211,255)"/>
<path d="M0 0 C1.89453125 1.63671875 1.89453125 1.63671875 3.8125 3.6875 C6.9281941 6.9432253 10.12660094 9.87285587 13.65234375 12.67578125 C15 14 15 14 16 17 C10.70489184 19.52721071 5.50359761 20.91963492 -0.23046875 22.15625 C-3.08083812 23.02462769 -4.67022634 24.20402887 -7 26 C-7.99 26 -8.98 26 -10 26 C-10.33 26.99 -10.66 27.98 -11 29 C-11.69222656 28.1646875 -11.69222656 28.1646875 -12.3984375 27.3125 C-17.41997203 21.43750308 -22.82930601 16.64066536 -29 12 C-28.67 10.35 -28.34 8.7 -28 7 C-24.0891223 5.62869384 -20.17051762 4.28097257 -16.25 2.9375 C-15.13882813 2.54755859 -14.02765625 2.15761719 -12.8828125 1.75585938 C-11.81289062 1.39169922 -10.74296875 1.02753906 -9.640625 0.65234375 C-8.16384277 0.14175415 -8.16384277 0.14175415 -6.65722656 -0.37915039 C-3.9077508 -1.02155363 -2.59252534 -1.03586316 0 0 Z " fill="#4590FE" transform="translate(266,183)"/>
<path d="M0 0 C0.33 0 0.66 0 1 0 C0.96777344 0.67804688 0.93554688 1.35609375 0.90234375 2.0546875 C0.99827188 9.7502556 3.23735811 13.2535818 8.5625 18.6640625 C10.10243319 20.13983181 11.64389966 21.61400432 13.1875 23.0859375 C17.81371046 27.80541833 17.81371046 27.80541833 18.3125 31.00390625 C18.09814417 33.42880659 17.5982219 35.63878298 17 38 C16.49739186 40.35361122 15.99757392 42.70781937 15.5 45.0625 C15.23574219 46.25230469 14.97148437 47.44210937 14.69921875 48.66796875 C13.90626777 52.44666809 13.38389346 56.16106543 13 60 C12.34 60 11.68 60 11 60 C10.525625 59.071875 10.05125 58.14375 9.5625 57.1875 C6.94373659 52.52875785 3.43371428 48.65586345 -0.07421875 44.6484375 C-2.70564621 41.02955754 -3.18529555 38.66765991 -2.6953125 34.2578125 C-2.50710937 33.22398437 -2.31890625 32.19015625 -2.125 31.125 C-0.49548715 20.81943228 -0.3310724 10.4139766 0 0 Z " fill="#C3D3FE" transform="translate(192,223)"/>
<path d="M0 0 C1.61886714 4.73379082 0.49728983 8.17315122 -1.40234375 12.67578125 C-6.63369281 20.78858142 -20.10612501 26.035375 -29 29 C-28.87625 29.680625 -28.7525 30.36125 -28.625 31.0625 C-29.19209165 35.50471791 -31.7484199 38.04540262 -35 41 C-37.875 42.4375 -37.875 42.4375 -40 43 C-39.125 36.25 -39.125 36.25 -38 34 C-37.34 34 -36.68 34 -36 34 C-36.05027344 33.12601562 -36.10054687 32.25203125 -36.15234375 31.3515625 C-35.98694817 27.71285977 -35.17281415 25.61387549 -33.5625 22.375 C-32.02846797 19.2544904 -30.69750773 16.41538267 -30 13 C-28.0625 12.4375 -28.0625 12.4375 -26 12 C-25.67 12.33 -25.34 12.66 -25 13 C-16.56122861 8.84903678 -8.25578533 4.50073458 0 0 Z " fill="#83CCFE" transform="translate(285,256)"/>
<path d="M0 0 C-0.875 4.75 -0.875 4.75 -2 7 C-2.98094519 13.97561022 -3.13729133 20.96763321 -3 28 C-3.66 28 -4.32 28 -5 28 C-5.7115625 26.6078125 -5.7115625 26.6078125 -6.4375 25.1875 C-9.05626341 20.52875785 -12.56628572 16.65586345 -16.07421875 12.6484375 C-18.02723108 9.96255036 -18.65253029 8.26268164 -19 5 C-18.67 5.66 -18.34 6.32 -18 7 C-17.11957031 6.4946875 -16.23914063 5.989375 -15.33203125 5.46875 C-14.15916489 4.81194484 -12.98597028 4.15572557 -11.8125 3.5 C-10.08966797 2.52546875 -10.08966797 2.52546875 -8.33203125 1.53125 C-5.14862918 0.06830321 -3.42692535 -0.36140832 0 0 Z " fill="#D7E2FE" transform="translate(208,255)"/>
<path d="M0 0 C4.16476948 3.25055179 7.60085023 6.68888364 11.0234375 10.70703125 C13.25359668 13.29419219 15.56031382 15.80074302 17.875 18.3125 C21.14529473 21.89261212 24.28026617 25.52916237 27.3125 29.3125 C31.55976385 34.59866292 36.13728505 39.52125945 40.83520508 44.40551758 C45 48.78889127 45 48.78889127 45 51 C45.66 51 46.32 51 47 51 C44.10933941 60.59453303 44.10933941 60.59453303 41 64 C41.144375 63.40832031 41.28875 62.81664062 41.4375 62.20703125 C41.7159375 61.02173828 41.7159375 61.02173828 42 59.8125 C42.2784375 58.64654297 42.2784375 58.64654297 42.5625 57.45703125 C43.03191189 54.82078054 43.31202295 52.66715505 43 50 C41.52020346 47.95212897 41.52020346 47.95212897 39.4375 46.1875 C34.80436538 41.82928087 30.71465755 37.18386923 26.59033203 32.34667969 C25.53694837 31.11172377 24.48305931 29.8771988 23.42871094 28.64306641 C22.37149875 27.40475473 21.31608444 26.16490529 20.26269531 24.92333984 C18.85408123 23.27105119 17.4310929 21.63282591 16 20 C14.95392578 18.80117187 14.95392578 18.80117187 13.88671875 17.578125 C11.89858647 15.57227388 11.89858647 15.57227388 8 16 C8.061875 17.5159375 8.061875 17.5159375 8.125 19.0625 C7.95197134 24.51290287 6.66666896 29.23809114 4 34 C2.04311649 31.21656281 2.00151857 29.98765637 2.42578125 26.5390625 C2.70770544 25.2313578 3.00374688 23.92663141 3.3125 22.625 C3.87531839 20.08340382 4.43783311 17.54174036 5 15 C5.39058594 13.39511719 5.39058594 13.39511719 5.7890625 11.7578125 C6.26553183 9.00086428 6.26553183 9.00086428 4.78515625 6.953125 C4.21667969 6.39109375 3.64820313 5.8290625 3.0625 5.25 C0 2.15261959 0 2.15261959 0 0 Z " fill="#60A9FD" transform="translate(208,220)"/>
<path d="M0 0 C0.66 0.33 1.32 0.66 2 1 C1.37321829 4.66172475 0.35548154 7.8818995 -1.0625 11.3125 C-1.42472656 12.19550781 -1.78695312 13.07851563 -2.16015625 13.98828125 C-2.43730469 14.65214844 -2.71445313 15.31601562 -3 16 C-2.34 16.33 -1.68 16.66 -1 17 C-0.5012438 19.74315908 -0.65167284 21.45346648 -2.16015625 23.8203125 C-5.05789802 27.36282035 -7.44011165 29.79297073 -12 31 C-11.125 24.25 -11.125 24.25 -10 22 C-9.34 22 -8.68 22 -8 22 C-8.05027344 21.12601562 -8.10054687 20.25203125 -8.15234375 19.3515625 C-7.98694817 15.71285977 -7.17281415 13.61387549 -5.5625 10.375 C-3.71079226 6.66032144 -3.71079226 6.66032144 -2.46484375 2.7265625 C-2.31144531 2.15679687 -2.15804687 1.58703125 -2 1 C-1.34 0.67 -0.68 0.34 0 0 Z " fill="#9CCFFE" transform="translate(257,268)"/>
<path d="M0 0 C6.41086565 3.89400728 11.86762768 8.42404966 17.34765625 13.53515625 C20.27506163 16.25561692 23.28913086 18.85397051 26.34375 21.4296875 C28.14975363 23.14198339 29.5614885 24.97380392 31 27 C28.56125571 25.91611365 26.74714634 24.78814964 24.6875 23.0625 C22.03472296 20.83402212 22.03472296 20.83402212 18.5625 19.625 C14.20422268 17.63701385 12.09945731 15.62863294 9 12 C9 11.01 9 10.02 9 9 C8.071875 8.7834375 8.071875 8.7834375 7.125 8.5625 C5 8 5 8 3 7 C3 6.34 3 5.68 3 5 C2.34 5 1.68 5 1 5 C0.67 3.35 0.34 1.7 0 0 Z " fill="#8097ED" transform="translate(282,200)"/>
<path d="M0 0 C2.0625 0.9375 2.0625 0.9375 4 3 C3.5692141 9.78487799 2.2495663 16.40017042 0.9375 23.0625 C0.75123047 24.02349609 0.56496094 24.98449219 0.37304688 25.97460938 C-0.08145562 28.31704531 -0.53918902 30.65879844 -1 33 C-1.33 33 -1.66 33 -2 33 C-2.30455801 14.42196133 -2.30455801 14.42196133 2 6 C-2.54756452 7.36117577 -6.8383268 8.75739943 -10.9375 11.1875 C-14 13 -14 13 -16 13 C-15.67 12.01 -15.34 11.02 -15 10 C-14.34 10 -13.68 10 -13 10 C-13 9.34 -13 8.68 -13 8 C-12.14535156 7.59007812 -11.29070312 7.18015625 -10.41015625 6.7578125 C-9.30542969 6.21898437 -8.20070312 5.68015625 -7.0625 5.125 C-5.96035156 4.59132812 -4.85820312 4.05765625 -3.72265625 3.5078125 C-0.90595489 2.28340155 -0.90595489 2.28340155 0 0 Z " fill="#ABC0FE" transform="translate(206,249)"/>
<path d="M0 0 C4.18374334 3.5085571 8.18564713 7.08526942 12 11 C12.928125 11.928125 13.85625 12.85625 14.8125 13.8125 C15.534375 14.534375 16.25625 15.25625 17 16 C16.67 16.66 16.34 17.32 16 18 C15.63648438 17.55527344 15.27296875 17.11054688 14.8984375 16.65234375 C14.39570313 16.08644531 13.89296875 15.52054688 13.375 14.9375 C12.88773437 14.36902344 12.40046875 13.80054688 11.8984375 13.21484375 C9.98418245 11.73648111 9.98418245 11.73648111 7.21484375 12.09765625 C3.53446264 13.13066723 0.53882547 14.66448167 -2.8125 16.5 C-8.28890123 19.40093793 -12.7768273 20.89270392 -19 21 C-14.95350571 17.40487592 -10.87043714 15.41870998 -5.9375 13.375 C-4.52958909 12.77949347 -3.12202588 12.1831641 -1.71484375 11.5859375 C-1.06628418 11.31233398 -0.41772461 11.03873047 0.25048828 10.75683594 C2.2065372 9.91065234 4.11277841 8.9901786 6 8 C5.566875 7.59007812 5.13375 7.18015625 4.6875 6.7578125 C4.130625 6.21898437 3.57375 5.68015625 3 5.125 C2.443125 4.59132812 1.88625 4.05765625 1.3125 3.5078125 C0 2 0 2 0 0 Z " fill="#68B1FE" transform="translate(246,202)"/>
<path d="M0 0 C1.48981668 3.87352336 0.5200457 6.23607732 -1 10 C-2.27592129 12.69766216 -3.62708528 15.35070363 -5 18 C-5.66852303 19.33240354 -6.33570686 20.66548254 -7 22 C-8.875 21.75 -8.875 21.75 -11 21 C-12.25 18.9375 -12.25 18.9375 -13 17 C-11.68 17 -10.36 17 -9 17 C-7.02 12.05 -5.04 7.1 -3 2 C-2.01 2 -1.02 2 0 2 C0 1.34 0 0.68 0 0 Z " fill="#4F92FE" transform="translate(243,298)"/>
<path d="M0 0 C0 0.99 0 1.98 0 3 C-2.54115002 3.95972174 -5.08289457 4.91781494 -7.625 5.875 C-8.33785156 6.14441406 -9.05070312 6.41382813 -9.78515625 6.69140625 C-13.83166502 8.21348753 -17.88802073 9.66149649 -22 11 C-22.99 11.33 -23.98 11.66 -25 12 C-25 11.01 -25 10.02 -25 9 C-17.27585239 3.76474439 -8.96961549 1.97001371 0 0 Z " fill="#3E62F2" transform="translate(281,200)"/>
<path d="M0 0 C-1.65 0.66 -3.3 1.32 -5 2 C-0.0331362 7.69637192 4.97167385 13.35782624 10 19 C9.67 19.99 9.34 20.98 9 22 C2.32675544 15.50930621 -4.04921841 8.92125055 -9 1 C-5.57367167 -0.61798838 -3.61944899 -1.34053666 0 0 Z " fill="#97C6FD" transform="translate(204,203)"/>
<path d="M0 0 C2.66666667 1.33333333 5.33333333 2.66666667 8 4 C8.66 3.34 9.32 2.68 10 2 C9.39254603 6.85963179 7.27241033 10.7405518 5 15 C4.34 15 3.68 15 3 15 C3.33 12.36 3.66 9.72 4 7 C3.01 6.67 2.02 6.34 1 6 C0.67 4.02 0.34 2.04 0 0 Z " fill="#4582FD" transform="translate(238,285)"/>
<path d="M0 0 C-0.41434907 4.83407252 -2.37793954 6.89537674 -6 10 C-6.99 10.33 -7.98 10.66 -9 11 C-8.70673279 7.18752628 -8.49869932 4.6706646 -6.1875 1.5625 C-4 0 -4 0 0 0 Z " fill="#A2C6FE" transform="translate(254,288)"/>
<path d="M0 0 C1.98 0.99 1.98 0.99 4 2 C4 2.66 4 3.32 4 4 C4.639375 4.268125 5.27875 4.53625 5.9375 4.8125 C8 6 8 6 9 9 C9.66 9 10.32 9 11 9 C12.37482707 10.63260714 13.70647667 12.30225062 15 14 C15.66 14.66 16.32 15.32 17 16 C17.2475 17.0209375 17.2475 17.0209375 17.5 18.0625 C17.665 18.701875 17.83 19.34125 18 20 C18.66 20.33 19.32 20.66 20 21 C18.68 21.33 17.36 21.66 16 22 C15.80535156 21.32195312 15.61070312 20.64390625 15.41015625 19.9453125 C13.45913267 15.87032143 10.57441779 13.08282766 7.4375 9.875 C6.24437243 8.64741848 5.05537476 7.41580573 3.87109375 6.1796875 C3.34443115 5.64069824 2.81776855 5.10170898 2.27514648 4.54638672 C1 3 1 3 0 0 Z " fill="#7AA9FE" transform="translate(194,234)"/>
<path d="M0 0 C0.99 0.66 1.98 1.32 3 2 C1.92598892 4.91517292 1.22189824 6.77810176 -1 9 C-1 8.34 -1 7.68 -1 7 C-2.32 7 -3.64 7 -5 7 C-5 7.66 -5 8.32 -5 9 C-6.4317616 9.69937202 -7.87067032 10.38412718 -9.3125 11.0625 C-10.11300781 11.44535156 -10.91351563 11.82820312 -11.73828125 12.22265625 C-14 13 -14 13 -17 12 C-13.62411578 9.16425726 -10.05588012 7.67829522 -6 6 C-3.9927542 5.01462479 -1.99019747 4.01936943 0 3 C0 2.01 0 1.02 0 0 Z " fill="#90AEF9" transform="translate(319,232)"/>
<path d="M0 0 C0.33 0 0.66 0 1 0 C1.04125 1.010625 1.0825 2.02125 1.125 3.0625 C1.7738394 7.81742757 4.58862881 10.7967496 8 14 C8.66 14.33 9.32 14.66 10 15 C10.40729228 17.32156597 10.74438677 19.6568787 11 22 C0.45480933 11.61811981 0.45480933 11.61811981 -0.44921875 6.4140625 C-0.4375 3.9375 -0.4375 3.9375 0 0 Z " fill="#6097FE" transform="translate(205,275)"/>
<path d="M0 0 C-0.33 0.99 -0.66 1.98 -1 3 C-3.31254012 4.04718798 -5.6485148 5.04346365 -8 6 C-10.33878876 7.56328365 -10.33878876 7.56328365 -12 9 C-12.66 8.01 -13.32 7.02 -14 6 C-13.67 5.01 -13.34 4.02 -13 3 C-13 3.66 -13 4.32 -13 5 C-12.39671875 4.6390625 -11.7934375 4.278125 -11.171875 3.90625 C-10.37265625 3.4421875 -9.5734375 2.978125 -8.75 2.5 C-7.56664062 1.80390625 -7.56664062 1.80390625 -6.359375 1.09375 C-4 0 -4 0 0 0 Z " fill="#E4EBFE" transform="translate(203,257)"/>
<path d="M0 0 C0.99 0.99 1.98 1.98 3 3 C2.01 5.31 1.02 7.62 0 10 C-1.875 9.75 -1.875 9.75 -4 9 C-5.25 6.9375 -5.25 6.9375 -6 5 C-4.68 5 -3.36 5 -2 5 C-1.34 3.35 -0.68 1.7 0 0 Z " fill="#63A0FE" transform="translate(236,310)"/>
<path d="M0 0 C7.5780409 6.02798708 7.5780409 6.02798708 10 10 C9.93307426 13.34628709 9.74421277 15.19796619 7.44140625 17.6796875 C6.96574219 18.11539063 6.49007812 18.55109375 6 19 C6.06960937 18.35933594 6.13921875 17.71867187 6.2109375 17.05859375 C6.59817547 11.70819967 6.59817547 11.70819967 4.6640625 6.84765625 C3.58745537 5.65226852 2.47130578 4.49088705 1.3125 3.375 C0 2 0 2 0 0 Z " fill="#5C98F9" transform="translate(208,220)"/>
<path d="M0 0 C1.31052767 4.30422506 0.45785552 7.9370534 -0.4375 12.25 C-0.58509766 12.99507813 -0.73269531 13.74015625 -0.88476562 14.5078125 C-1.2488694 16.34007665 -1.62341409 18.17026053 -2 20 C-2.33 20 -2.66 20 -3 20 C-3.09706112 13.88514973 -2.77040851 8.06696699 -2 2 C-1.34 2 -0.68 2 0 2 C0 1.34 0 0.68 0 0 Z " fill="#9BB3FE" transform="translate(207,262)"/>
<path d="M0 0 C2.31 0.33 4.62 0.66 7 1 C7 2.65 7 4.3 7 6 C6.01 6.495 6.01 6.495 5 7 C5 6.01 5 5.02 5 4 C3.35 4.33 1.7 4.66 0 5 C0 3.35 0 1.7 0 0 Z " fill="#92C7FE" transform="translate(249,284)"/>
<path d="M0 0 C0.33 0 0.66 0 1 0 C1 5.28 1 10.56 1 16 C0.34 16 -0.32 16 -1 16 C-3.15328004 11.69343993 -2.9883829 9.08928635 -1.625 4.625 C-1.10005689 3.07755901 -0.56377804 1.53371875 0 0 Z " fill="#C0D2FE" transform="translate(204,267)"/>
<path d="M0 0 C-0.75 7.625 -0.75 7.625 -3 11 C-3.66 11 -4.32 11 -5 11 C-4.01 8.03 -3.02 5.06 -2 2 C-2.99 1.67 -3.98 1.34 -5 1 C-3 0 -3 0 0 0 Z " fill="#BDCDFE" transform="translate(210,253)"/>
<path d="M0 0 C-0.66 0 -1.32 0 -2 0 C-2 0.66 -2 1.32 -2 2 C-3.6796875 3.2890625 -3.6796875 3.2890625 -5.875 4.625 C-6.95394531 5.29402344 -6.95394531 5.29402344 -8.0546875 5.9765625 C-10 7 -10 7 -12 7 C-12 6.01 -12 5.02 -12 4 C-10.56988027 3.13353333 -9.13059381 2.28218171 -7.6875 1.4375 C-6.48673828 0.72400391 -6.48673828 0.72400391 -5.26171875 -0.00390625 C-3 -1 -3 -1 0 0 Z " fill="#3B73FC" transform="translate(268,205)"/>
<path d="M0 0 C4.28324091 2.51407619 6.64531705 4.12314139 8 9 C5.525 8.01 5.525 8.01 3 7 C3 6.34 3 5.68 3 5 C2.34 5 1.68 5 1 5 C0.67 3.35 0.34 1.7 0 0 Z " fill="#687FE8" transform="translate(282,200)"/>
<path d="M0 0 C0.66 0.33 1.32 0.66 2 1 C0.44333045 1.9884096 -1.12062426 2.96535082 -2.6875 3.9375 C-3.55761719 4.48277344 -4.42773438 5.02804687 -5.32421875 5.58984375 C-7.94624689 6.97167172 -10.08310075 7.58480173 -13 8 C-10.61664713 5.32561064 -8.12963852 3.84841988 -4.9375 2.25 C-4.05964844 1.80140625 -3.18179687 1.3528125 -2.27734375 0.890625 C-1.52582031 0.59671875 -0.77429688 0.3028125 0 0 Z " fill="#70B2F9" transform="translate(271,262)"/>
<path d="M0 0 C0 3 0 3 -2 6 C-2.99 6 -3.98 6 -5 6 C-5 4.35 -5 2.7 -5 1 C-3.35 0.67 -1.7 0.34 0 0 Z " fill="#B5D1FE" transform="translate(252,289)"/>
<path d="M0 0 C1.9375 0.8125 1.9375 0.8125 4 2 C4.33 2.99 4.66 3.98 5 5 C4.67 5.66 4.34 6.32 4 7 C3.01 6.67 2.02 6.34 1 6 C0.67 4.02 0.34 2.04 0 0 Z " fill="#4A73F7" transform="translate(238,285)"/>
<path d="M0 0 C1.65 0 3.3 0 5 0 C5 0.66 5 1.32 5 2 C5.99 2.33 6.98 2.66 8 3 C6.25 3.75 6.25 3.75 4 4 C1.75 2.0625 1.75 2.0625 0 0 Z " fill="#697FE8" transform="translate(296,216)"/>
<path d="M0 0 C-1.2065625 0.4021875 -1.2065625 0.4021875 -2.4375 0.8125 C-3.283125 1.204375 -4.12875 1.59625 -5 2 C-5.33 2.99 -5.66 3.98 -6 5 C-6.99 3.68 -7.98 2.36 -9 1 C-5.57367167 -0.61798838 -3.61944899 -1.34053666 0 0 Z " fill="#A8D3FE" transform="translate(204,203)"/>
</svg>
